<?xml version="1.0" encoding="utf-8"?>
<svg version="1.1" xmlns:xlink="http://www.w3.org/1999/xlink" width="13px" height="9px" xmlns="http://www.w3.org/2000/svg">
  <g transform="matrix(1 0 0 1 -627 -110 )">
    <path d="M 12.8697394789579 0.927835051546391  C 12.9565798263193 1.03092783505154  13 1.14948453608247  13 1.28350515463918  C 13 1.41752577319588  12.9565798263193 1.5360824742268  12.8697394789579 1.63917525773196  L 6.79959919839679 8.84536082474227  C 6.7127588510354 8.94845360824742  6.61289245156981 9  6.5 9  C 6.38710754843019 9  6.2872411489646 8.94845360824742  6.20040080160321 8.84536082474227  L 0.130260521042084 1.63917525773196  C 0.0434201736806948 1.5360824742268  0 1.41752577319588  0 1.28350515463918  C 0 1.14948453608247  0.0434201736806948 1.03092783505154  0.130260521042084 0.927835051546391  L 0.781563126252505 0.154639175257732  C 0.868403473613895 0.0515463917525761  0.968269873079492 0  1.0811623246493 0  C 1.19405477621911 0  1.2939211756847 0.0515463917525761  1.38076152304609 0.154639175257732  L 6.5 6.2319587628866  L 11.6192384769539 0.154639175257732  C 11.7060788243153 0.0515463917525761  11.8059452237809 0  11.9188376753507 0  C 12.0317301269205 0  12.1315965263861 0.0515463917525761  12.2184368737475 0.154639175257732  L 12.8697394789579 0.927835051546391  Z " fill-rule="nonzero" fill="#7f7f7f" stroke="none" transform="matrix(1 0 0 1 627 110 )" />
  </g>
</svg>