<?xml version="1.0" encoding="utf-8"?>
<svg version="1.1" xmlns:xlink="http://www.w3.org/1999/xlink" width="15px" height="15px" xmlns="http://www.w3.org/2000/svg">
  <g transform="matrix(1 0 0 1 -257 -133 )">
    <path d="M 9.912109375 12.412109375  C 9.970703125 12.353515625  10 12.2786458333333  10 12.1875  L 10 10.625  C 10 10.5338541666667  9.970703125 10.458984375  9.912109375 10.400390625  C 9.853515625 10.341796875  9.77864583333333 10.3125  9.6875 10.3125  L 8.75 10.3125  L 8.75 5.3125  C 8.75 5.22135416666667  8.720703125 5.146484375  8.662109375 5.087890625  C 8.603515625 5.029296875  8.52864583333333 5  8.4375 5  L 5.3125 5  C 5.22135416666667 5  5.146484375 5.029296875  5.087890625 5.087890625  C 5.029296875 5.146484375  5 5.22135416666667  5 5.3125  L 5 6.875  C 5 6.96614583333333  5.029296875 7.041015625  5.087890625 7.099609375  C 5.146484375 7.158203125  5.22135416666667 7.1875  5.3125 7.1875  L 6.25 7.1875  L 6.25 10.3125  L 5.3125 10.3125  C 5.22135416666667 10.3125  5.146484375 10.341796875  5.087890625 10.400390625  C 5.029296875 10.458984375  5 10.5338541666667  5 10.625  L 5 12.1875  C 5 12.2786458333333  5.029296875 12.353515625  5.087890625 12.412109375  C 5.146484375 12.470703125  5.22135416666667 12.5  5.3125 12.5  L 9.6875 12.5  C 9.77864583333333 12.5  9.853515625 12.470703125  9.912109375 12.412109375  Z M 8.662109375 3.662109375  C 8.720703125 3.603515625  8.75 3.52864583333333  8.75 3.4375  L 8.75 1.875  C 8.75 1.78385416666667  8.720703125 1.708984375  8.662109375 1.650390625  C 8.603515625 1.591796875  8.52864583333333 1.5625  8.4375 1.5625  L 6.5625 1.5625  C 6.47135416666667 1.5625  6.396484375 1.591796875  6.337890625 1.650390625  C 6.279296875 1.708984375  6.25 1.78385416666667  6.25 1.875  L 6.25 3.4375  C 6.25 3.52864583333333  6.279296875 3.603515625  6.337890625 3.662109375  C 6.396484375 3.720703125  6.47135416666667 3.75  6.5625 3.75  L 8.4375 3.75  C 8.52864583333333 3.75  8.603515625 3.720703125  8.662109375 3.662109375  Z M 13.994140625 3.7353515625  C 14.6647135416667 4.88444010416667  15 6.13932291666666  15 7.5  C 15 8.86067708333333  14.6647135416667 10.1155598958333  13.994140625 11.2646484375  C 13.3235677083333 12.4137369791667  12.4137369791667 13.3235677083333  11.2646484375 13.994140625  C 10.1155598958333 14.6647135416667  8.86067708333333 15  7.5 15  C 6.13932291666667 15  4.88444010416667 14.6647135416667  3.7353515625 13.994140625  C 2.58626302083333 13.3235677083333  1.67643229166667 12.4137369791667  1.005859375 11.2646484375  C 0.335286458333333 10.1155598958333  0 8.86067708333333  0 7.5  C 0 6.13932291666666  0.335286458333333 4.88444010416667  1.005859375 3.7353515625  C 1.67643229166667 2.58626302083333  2.58626302083333 1.67643229166667  3.7353515625 1.005859375  C 4.88444010416667 0.335286458333332  6.13932291666667 0  7.5 0  C 8.86067708333333 0  10.1155598958333 0.335286458333332  11.2646484375 1.005859375  C 12.4137369791667 1.67643229166667  13.3235677083333 2.58626302083333  13.994140625 3.7353515625  Z " fill-rule="nonzero" fill="#2d73ff" stroke="none" transform="matrix(1 0 0 1 257 133 )" />
  </g>
</svg>