<?xml version="1.0" encoding="utf-8"?>
<svg version="1.1" xmlns:xlink="http://www.w3.org/1999/xlink" width="409px" height="294px" xmlns="http://www.w3.org/2000/svg">
  <g transform="matrix(1 0 0 1 -1157 -886 )">
    <path d="M 1157 886  L 1566 886  L 1566 1180  L 1157 1180  L 1157 886  " fill-rule="nonzero" fill="#cccccc" stroke="none" />
    <path d="M 1178 907  L 1545 907  L 1545 1159  L 1178 1159  L 1178 907  " fill-rule="nonzero" fill="#ffffff" stroke="none" />
    <path d="M 1391.73 974.2  C 1379.382 974.2  1369.68 964.498  1369.68 952.15  C 1369.68 939.802  1379.382 930.1  1391.73 930.1  C 1404.078 930.1  1413.78 939.802  1413.78 952.15  C 1413.78 964.498  1404.078 974.2  1391.73 974.2  " fill-rule="nonzero" fill="#cccccc" stroke="none" />
    <path d="M 1186 1152  L 1186 1021.65  L 1274 962.4  L 1397.2 1049.78288508557  L 1467.6 997.95  L 1538 1049.78288508557  L 1538 1152  L 1186 1152  " fill-rule="nonzero" fill="#169bd5" stroke="none" />
  </g>
</svg>