<?xml version="1.0" encoding="utf-8"?>
<svg version="1.1" xmlns:xlink="http://www.w3.org/1999/xlink" width="13px" height="13px" xmlns="http://www.w3.org/2000/svg">
  <g transform="matrix(1 0 0 1 -19 -38 )">
    <path d="M 25.5 38  C 29.14 38  32 40.86  32 44.5  C 32 48.14  29.14 51  25.5 51  C 21.86 51  19 48.14  19 44.5  C 19 40.86  21.86 38  25.5 38  Z " fill-rule="nonzero" fill="#0069aa" stroke="none" />
    <path d="M 25.5 38.5  C 28.86 38.5  31.5 41.14  31.5 44.5  C 31.5 47.86  28.86 50.5  25.5 50.5  C 22.14 50.5  19.5 47.86  19.5 44.5  C 19.5 41.14  22.14 38.5  25.5 38.5  Z " stroke-width="1" stroke="#797979" fill="none" />
  </g>
</svg>