<?xml version="1.0" encoding="utf-8"?>
<svg version="1.1" xmlns:xlink="http://www.w3.org/1999/xlink" width="914px" height="15px" xmlns="http://www.w3.org/2000/svg">
  <g transform="matrix(1 0 0 1 -41 -587 )">
    <path d="M 913 14  L 1.13889886408734 13.1592356687897  L 30.4741726360355 0.42038216560502  L 48.5930182010622 13.1592356687897  L 82.2423028218261 0  L 96.047137538037 6.15286624203816  L 128.833619989038 0  L 158.168893760986 13.1592356687897  L 220.290649983935 0  L 256.528341113988 6.15286624203816  L 293.628834413805 0.42038216560502  L 329.003723374095 13.1592356687897  L 373.86943620178 6.15286624203816  L 402.341907803965 13.1592356687897  L 453.247235819993 0.42038216560502  L 498.112948647678 13.1592356687897  L 529.173826759153 0.42038216560502  L 551.606683172995 6.15286624203816  L 592.158385151864 0  L 648.240526186471 13.1592356687897  L 664.633767411971 6.15286624203816  L 677.575799958419 13.1592356687897  L 713.813491088473 0.42038216560502  L 740.560358351131 13.1592356687897  L 779.386455990474 0  L 796.642499385738 6.15286624203816  L 838.919805704134 0  L 863.078266457502 6.15286624203816  L 901.041561927082 0  L 913 14  Z " fill-rule="nonzero" fill="#aaaaaa" stroke="none" transform="matrix(1 0 0 1 41 587 )" />
  </g>
</svg>