<?xml version="1.0" encoding="utf-8"?>
<svg version="1.1" xmlns:xlink="http://www.w3.org/1999/xlink" width="29px" height="74px" xmlns="http://www.w3.org/2000/svg">
  <g transform="matrix(1 0 0 1 -306 -533 )">
    <path d="M 28.5017182130584 4.44889779559118  C 28.8339060710195 4.94321977287908  29 5.51169004676018  29 6.15430861723447  C 29 6.79692718770875  28.8339060710195 7.36539746158984  28.5017182130584 7.85971943887776  L 8.9192439862543 37  L 28.5017182130584 66.1402805611222  C 28.8339060710195 66.6346025384102  29 67.2030728122912  29 67.8456913827655  C 29 68.4883099532398  28.8339060710195 69.0567802271209  28.5017182130584 69.5511022044088  L 26.0103092783505 73.2585170340681  C 25.6781214203895 73.752839011356  25.2961053837343 74  24.8642611683849 74  C 24.4324169530355 74  24.0504009163803 73.752839011356  23.7182130584192 73.2585170340681  L 0.498281786941581 38.7054108216433  C 0.166093928980527 38.2110888443554  0 37.6426185704743  0 37  C 0 36.3573814295257  0.166093928980527 35.7889111556446  0.498281786941581 35.2945891783567  L 23.7182130584192 0.741482965931864  C 24.0504009163803 0.247160988643952  24.4324169530355 0  24.8642611683849 0  C 25.2961053837343 0  25.6781214203895 0.247160988643952  26.0103092783505 0.741482965931864  L 28.5017182130584 4.44889779559118  Z " fill-rule="nonzero" fill="#aaaaaa" stroke="none" transform="matrix(1 0 0 1 306 533 )" />
  </g>
</svg>