<?xml version="1.0" encoding="utf-8"?>
<svg version="1.1" xmlns:xlink="http://www.w3.org/1999/xlink" width="29px" height="74px" xmlns="http://www.w3.org/2000/svg">
  <g transform="matrix(1 0 0 1 -1402 -533 )">
    <path d="M 28.5017182130584 35.2945891783567  C 28.8339060710195 35.7889111556446  29 36.3573814295257  29 37  C 29 37.6426185704743  28.8339060710195 38.2110888443554  28.5017182130584 38.7054108216433  L 5.28178694158076 73.2585170340681  C 4.9495990836197 73.752839011356  4.56758304696449 74  4.13573883161512 74  C 3.70389461626575 74  3.32187857961054 73.752839011356  2.98969072164948 73.2585170340681  L 0.498281786941581 69.5511022044088  C 0.166093928980527 69.0567802271209  0 68.4883099532398  0 67.8456913827655  C 0 67.2030728122912  0.166093928980527 66.6346025384102  0.498281786941581 66.1402805611222  L 20.0807560137457 37  L 0.498281786941581 7.85971943887776  C 0.166093928980527 7.36539746158984  0 6.79692718770875  0 6.15430861723447  C 0 5.51169004676018  0.166093928980527 4.94321977287908  0.498281786941581 4.44889779559118  L 2.98969072164948 0.741482965931864  C 3.32187857961054 0.247160988643952  3.70389461626575 0  4.13573883161512 0  C 4.56758304696449 0  4.9495990836197 0.247160988643952  5.28178694158076 0.741482965931864  L 28.5017182130584 35.2945891783567  Z " fill-rule="nonzero" fill="#aaaaaa" stroke="none" transform="matrix(1 0 0 1 1402 533 )" />
  </g>
</svg>