<?xml version="1.0" encoding="utf-8"?>
<svg version="1.1" xmlns:xlink="http://www.w3.org/1999/xlink" width="20px" height="21px" xmlns="http://www.w3.org/2000/svg">
  <g transform="matrix(1 0 0 1 -536 -112 )">
    <path d="M 1.53846153846154 16.125  L 1.53846153846154 19.5  L 5 19.5  L 5 16.125  L 1.53846153846154 16.125  Z M 5.76923076923077 16.125  L 5.76923076923077 19.5  L 9.61538461538461 19.5  L 9.61538461538461 16.125  L 5.76923076923077 16.125  Z M 1.53846153846154 11.625  L 1.53846153846154 15.375  L 5 15.375  L 5 11.625  L 1.53846153846154 11.625  Z M 5.76923076923077 11.625  L 5.76923076923077 15.375  L 9.61538461538461 15.375  L 9.61538461538461 11.625  L 5.76923076923077 11.625  Z M 1.53846153846154 7.5  L 1.53846153846154 10.875  L 5 10.875  L 5 7.5  L 1.53846153846154 7.5  Z M 10.3846153846154 16.125  L 10.3846153846154 19.5  L 14.2307692307692 19.5  L 14.2307692307692 16.125  L 10.3846153846154 16.125  Z M 5.76923076923077 7.5  L 5.76923076923077 10.875  L 9.61538461538461 10.875  L 9.61538461538461 7.5  L 5.76923076923077 7.5  Z M 15 16.125  L 15 19.5  L 18.4615384615385 19.5  L 18.4615384615385 16.125  L 15 16.125  Z M 10.3846153846154 11.625  L 10.3846153846154 15.375  L 14.2307692307692 15.375  L 14.2307692307692 11.625  L 10.3846153846154 11.625  Z M 6.03966346153846 5.513671875  C 6.11578525641026 5.439453125  6.15384615384615 5.3515625  6.15384615384615 5.25  L 6.15384615384615 1.875  C 6.15384615384615 1.7734375  6.11578525641026 1.685546875  6.03966346153846 1.611328125  C 5.96354166666667 1.537109375  5.87339743589744 1.5  5.76923076923077 1.5  L 5 1.5  C 4.89583333333333 1.5  4.8056891025641 1.537109375  4.72956730769231 1.611328125  C 4.65344551282051 1.685546875  4.61538461538462 1.7734375  4.61538461538462 1.875  L 4.61538461538462 5.25  C 4.61538461538462 5.3515625  4.65344551282051 5.439453125  4.72956730769231 5.513671875  C 4.8056891025641 5.587890625  4.89583333333333 5.625  5 5.625  L 5.76923076923077 5.625  C 5.87339743589744 5.625  5.96354166666667 5.587890625  6.03966346153846 5.513671875  Z M 15 11.625  L 15 15.375  L 18.4615384615385 15.375  L 18.4615384615385 11.625  L 15 11.625  Z M 10.3846153846154 7.5  L 10.3846153846154 10.875  L 14.2307692307692 10.875  L 14.2307692307692 7.5  L 10.3846153846154 7.5  Z M 15 7.5  L 15 10.875  L 18.4615384615385 10.875  L 18.4615384615385 7.5  L 15 7.5  Z M 15.2704326923077 5.513671875  C 15.3465544871795 5.439453125  15.3846153846154 5.3515625  15.3846153846154 5.25  L 15.3846153846154 1.875  C 15.3846153846154 1.7734375  15.3465544871795 1.685546875  15.2704326923077 1.611328125  C 15.1943108974359 1.537109375  15.1041666666667 1.5  15 1.5  L 14.2307692307692 1.5  C 14.1266025641026 1.5  14.0364583333333 1.537109375  13.9603365384615 1.611328125  C 13.8842147435897 1.685546875  13.8461538461538 1.7734375  13.8461538461538 1.875  L 13.8461538461538 5.25  C 13.8461538461538 5.3515625  13.8842147435897 5.439453125  13.9603365384615 5.513671875  C 14.0364583333333 5.587890625  14.1266025641026 5.625  14.2307692307692 5.625  L 15 5.625  C 15.1041666666667 5.625  15.1943108974359 5.587890625  15.2704326923077 5.513671875  Z M 19.5432692307692 3.4453125  C 19.8477564102564 3.7421875  20 4.09375  20 4.5  L 20 19.5  C 20 19.90625  19.8477564102564 20.2578125  19.5432692307692 20.5546875  C 19.2387820512821 20.8515625  18.8782051282051 21  18.4615384615385 21  L 1.53846153846154 21  C 1.12179487179487 21  0.761217948717949 20.8515625  0.456730769230769 20.5546875  C 0.15224358974359 20.2578125  0 19.90625  0 19.5  L 0 4.5  C 0 4.09375  0.15224358974359 3.7421875  0.456730769230769 3.4453125  C 0.761217948717949 3.1484375  1.12179487179487 3  1.53846153846154 3  L 3.07692307692308 3  L 3.07692307692308 1.875  C 3.07692307692308 1.359375  3.26522435897436 0.917968749999999  3.64182692307692 0.550781250000001  C 4.01842948717949 0.18359375  4.47115384615385 0  5 0  L 5.76923076923077 0  C 6.29807692307692 0  6.75080128205128 0.18359375  7.12740384615385 0.550781250000001  C 7.50400641025641 0.917968749999999  7.69230769230769 1.359375  7.69230769230769 1.875  L 7.69230769230769 3  L 12.3076923076923 3  L 12.3076923076923 1.875  C 12.3076923076923 1.359375  12.4959935897436 0.917968749999999  12.8725961538462 0.550781250000001  C 13.2491987179487 0.18359375  13.7019230769231 0  14.2307692307692 0  L 15 0  C 15.5288461538462 0  15.9815705128205 0.18359375  16.3581730769231 0.550781250000001  C 16.7347756410256 0.917968749999999  16.9230769230769 1.359375  16.9230769230769 1.875  L 16.9230769230769 3  L 18.4615384615385 3  C 18.8782051282051 3  19.2387820512821 3.1484375  19.5432692307692 3.4453125  Z " fill-rule="nonzero" fill="#7f7f7f" stroke="none" transform="matrix(1 0 0 1 536 112 )" />
  </g>
</svg>